<svg xmlns="http://www.w3.org/2000/svg" version="1.0" viewBox="0 0 340 250">
  <g fill="#FFD966" class="icon-text-wrapper icon-svg-group iconsvg">
    <g class="iconsvg-imagesvg" transform="translate(140 68.075096)" mask="url(#a)">
      <path class="image-rect" fill="none" d="M0 0h60v52.179812H0z"/>
      <svg width="60" height="52.179812" class="image-svg-svg primary" overflow="visible">
        <svg xmlns="http://www.w3.org/2000/svg" viewBox="0 0 326 283.51001">
          <g fill-rule="evenodd">
            <path fill="#0F0" d="m0 0 163.23 283.51 41-70.73L81.23 0H0z"/>
            <path fill="#ff6634" opacity=".8" d="M0 0h326l-40 71H41L0 0z"/>
            <path fill="#cc3198" opacity=".8" d="M55 95h218.46l-40 71H96L55 95z"/>
          </g>
        </svg>
      </svg>
      <path transform="translate(-6 -6)" fill="url(#b)" d="M0 0h72v64.179813H0z" pointer-events="none"/>
    </g>
    <g data-gra="path-name" class="tp-name iconsvg-namesvg" fill="url(#c)" transform="translate(84.884079 127.25491)">
      <path d="M1.021842 39.27q-.55 0-.83-.36-.27-.35-.16-.9l7.59-35.92q.11-.61.55-.96.44-.36.99-.36h22.33q.61 0 .88.36.28.35.17.96l-.44 2.03q-.12.56-.53.91-.41.36-1.02.36h-18.42l-2.8 13.04h17.32q.55 0 .82.32.28.34.17.94l-.44 2.09q-.11.55-.52.91-.41.35-1.02.35h-17.32l-3.2 14.97q-.1.55-.55.9-.43.36-.99.36h-2.58Zm31.51 0q-.55 0-.85-.36-.3-.35-.19-.9l7.81-36.53q.11-.55.52-.9.41-.36.97-.36h2.41q.56 0 .86.36.3.35.19.9l-7.81 36.53q-.11.55-.52.9-.41.36-.97.36h-2.42Zm14.63 10.45q-.38 0-.63-.25-.24-.24-.24-.63 0-.5.27-.94l6.77-10.56-5.4-25.18q-.1-.61.2-1.05.3-.44 1.07-.44h2.26q.98 0 1.2.88l4.3 20.3 13.03-20.3q.55-.88 1.54-.88h2.75q.38 0 .66.25.28.24.28.63 0 .33-.23.72l-23.59 36.57q-.66.88-1.6.88h-2.64Z"/>
      <path d="M2.53 2.09Q1.38 2.09.82.33.28-1.43.28-4.13q0-4.94 3.1-13.44 3.11-8.5 7.13-15.1 4.01-6.6 6.54-6.6 1.1 0 1.73 1.21.63 1.21.63 2.69 0 2.53-1.84 6.77t-4.84 8.17q-3 3.93-6.19 5.8-1.87 4.95-1.87 9.35l.06 1.15q.11-.16.49-1.2 1.11-2.87 2.32-5.18 1.2-2.3 3.32-4.31t4.93-2.01q2.53 0 3.68 1.62 1.16 1.62 1.16 3.83 0 1.26-.33 2.36-.34 1.1-1 2.81-.1.21-.41 1.01-.3.8-.44 1.43-.13.63-.13 1.13 0 1.76 1.48 1.76 1.21 0 2.86-1.21t3.25-3.24q1.59-2.04 2.75-4.4l.88.93q-2.04 4.51-4.93 7.31-2.88 2.81-6.18 2.81-2.04 0-3.17-1.07t-1.13-2.78q0-1.1.77-3.96.83-2.7.83-4.02 0-2.3-1.98-2.3t-3.33 2.06Q9.07-8.69 7.37-4.67 6-1.26 4.95.41 3.9 2.09 2.53 2.09ZM7.7-18.15q2.26-2.03 4.34-5.28 2.09-3.25 3.42-6.3 1.31-3.05 1.31-4.37-.66.27-2.36 2.67-1.7 2.39-3.57 5.99-1.88 3.6-3.14 7.29Zm30.36-5.01q-1.15 0-1.95-.55-.8-.54-.8-1.59 0-1.27 1.4-2.23 1.41-.96 3-.96 2.37 0 2.37 2.03 0 1.16-1.27 2.23-1.26 1.07-2.75 1.07ZM31.57 1.65q-2.31 0-3.57-1.37-1.27-1.38-1.27-3.53 0-2.2 1.24-5.96 1.24-3.77 3.13-6.63 1.9-2.86 3.83-2.86.71 0 1.18.41t.47 1.18q0 .5-.44 1.35-.44.86-1.44 2.45-1.75 2.92-2.77 5.14-1.02 2.23-1.02 4.21 0 1.71.61 2.31.6.61 1.87.61 4.34 0 8.63-8.42l.82.88q-1.92 4.84-4.89 7.54-2.97 2.69-6.38 2.69ZM43.34 15.4q-1.54 0-2.64-.91-1.1-.9-1.1-2.61 0-2.15 1.62-3.91 1.63-1.76 3.77-2.99 2.15-1.24 5.67-2.89 1.37-3.47 2.2-6.88Q48.4.82 44.5.82 42.3.82 41-.71q-1.29-1.54-1.29-4.08 0-3.68 2.42-6.98 2.42-3.3 6-5.31 3.57-2.01 6.82-2.01 1.7 0 2.61.61.91.6.91 1.48 0 .55-.33 1-.33.44-.55.49-.55-.55-1.11-.77-.54-.22-1.37-.22-2.69 0-5.22 2.01t-4.1 4.84q-1.57 2.83-1.57 5.08 0 1.11.47 1.68.47.58 1.24.58 1.48 0 3.65-1.93 2.18-1.92 4.32-4.95.61-3.08 1.43-4.42.83-1.35 2.37-1.35.71 0 1.59.22 0 1.43-1.21 5.72T55.17-.11q2.75-1.15 5.3-3.6 2.56-2.45 3.66-5.64l.99.99Q63.91-4.9 60.8-2.09 57.7.71 54.45 2.2q-2.53 6.1-5.25 9.65-2.72 3.55-5.86 3.55Zm-.22-2.53q1.1 0 2.86-2.03 1.76-2.04 3.63-6.17Q46.04 6.43 44.06 8t-1.98 3.33q0 .71.3 1.13.3.41.74.41ZM65.28 2.09q-1.15 0-1.7-1.76t-.55-4.46q0-4.94 3.11-13.44t7.12-15.1q4.02-6.6 6.55-6.6 1.1 0 1.73 1.21.63 1.21.63 2.69 0 2.53-1.84 6.77-1.85 4.24-4.84 8.17-3 3.93-6.19 5.8-1.87 4.95-1.87 9.35l.05 1.15q.11-.16.5-1.2 1.1-2.87 2.31-5.18 1.21-2.3 3.33-4.31 2.11-2.01 4.92-2.01 2.53 0 3.68 1.62 1.16 1.62 1.16 3.83 0 1.26-.33 2.36-.33 1.1-.99 2.81-.11.21-.41 1.01-.31.8-.44 1.43-.14.63-.14 1.13 0 1.76 1.49 1.76 1.21 0 2.86-1.21 1.64-1.21 3.24-3.24 1.59-2.04 2.75-4.4l.88.93q-2.04 4.51-4.92 7.31-2.89 2.81-6.19 2.81-2.03 0-3.16-1.07-1.13-1.07-1.13-2.78 0-1.1.77-3.96.82-2.7.82-4.02 0-2.3-1.98-2.3-1.97 0-3.32 2.06-1.35 2.06-3.05 6.08Q68.75-1.26 67.7.41q-1.04 1.68-2.42 1.68Zm5.17-20.24q2.26-2.03 4.35-5.28 2.09-3.25 3.41-6.3 1.32-3.05 1.32-4.37-.66.27-2.36 2.67-1.71 2.39-3.58 5.99t-3.14 7.29Z" transform="translate(77.94184 39.27)" data-gra="path-name-1" fill="url(#d)"/>
    </g>
  </g>
  <defs>
    <linearGradient x1="0" y1="1" x2="0" y2="0" id="c">
      <stop offset="0%" stop-color="#091f3f"/>
      <stop offset="100%" stop-color="#527895"/>
    </linearGradient>
    <linearGradient x1="0" y1="1" x2="0" y2="0" id="d">
      <stop offset="0%" stop-color="#091f3f"/>
      <stop offset="100%" stop-color="#527895"/>
    </linearGradient>
  </defs>
  <defs>
    <linearGradient x1="0" y1="1" x2="0" y2="0" id="b">
      <stop offset="0%" stop-color="#091f3f"/>
      <stop offset="100%" stop-color="#527895"/>
    </linearGradient>
    <filter id="e" filterUnits="userSpaceOnUse">
      <feColorMatrix values="0 0 0 0 0.99609375 0 0 0 0 0.99609375 0 0 0 0 0.99609375 0 0 0 1 0"/>
    </filter>
  </defs>
  <mask id="a">
    <g class="iconsvg-imagesvg" filter="url(#e)">
      <path fill="#FFD966" fill-opacity="0" stroke-width="2" class="image-rect" d="M0 0h60v52.179812H0z"/>
      <svg width="60" height="52.179812" class="image-svg-svg primary" overflow="visible">
        <svg xmlns="http://www.w3.org/2000/svg" viewBox="0 0 326 283.51001">
          <g fill-rule="evenodd">
            <path fill="#0F0" d="m0 0 163.23 283.51 41-70.73L81.23 0H0z"/>
            <path fill="#ff6634" opacity=".8" d="M0 0h326l-40 71H41L0 0z"/>
            <path fill="#cc3198" opacity=".8" d="M55 95h218.46l-40 71H96L55 95z"/>
          </g>
        </svg>
      </svg>
    </g>
  </mask>
</svg>